# xmcd CD database file
#
# Track frame offsets:
#	150
#	14855
#	31455
#	45970
#	62505
#	85510
#	97175
#	118920
#	135965
#	155970
#	167670
#	186575
#	205160
#	215630
#
# Disc length: 3089 seconds
#
# Revision: 1
# Processed by: cddbd v1.5.1PL0 Copyright (c) Steve Scherf et al.
# Submitted via: CDex 1.50beta8
#
DISCID=c90c0f0e
DTITLE=Roland Kirk - Domino
DYEAR=1962
DGENRE=Jazz
TTITLE0=Domino
TTITLE1=Meeting On Termini's Corner
TTITLE2=Time
TTITLE3=Lament
TTITLE4=A Strich In Time
TTITLE5=3-in-1 Without The Oil
TTITLE6=Get Out Of Town (From "Leave It To Me")
TTITLE7=Roland
TTITLE8=I Believe In You
TTITLE9=E.D.
TTITLE10=Where Monk And Mingus Live - Let's Call This
TTITLE11=Domino (alternate take)
TTITLE12=I Didn't Know What Time It Was
TTITLE13=Someone To Watch Over Me
EXTD=YEAR: 1962
EXTT0=
EXTT1=
EXTT2=
EXTT3=
EXTT4=
EXTT5=
EXTT6=
EXTT7=
EXTT8=
EXTT9=
EXTT10=
EXTT11=
EXTT12=
EXTT13=
PLAYORDER=
